<mxfile host="65bd71144e">
    <diagram id="AEH0uobeVBV-sa77biI9" name="Page-1">
        <mxGraphModel dx="256" dy="765" grid="1" gridSize="10" guides="1" tooltips="1" connect="1" arrows="1" fold="1" page="1" pageScale="1" pageWidth="1169" pageHeight="827" math="0" shadow="0">
            <root>
                <mxCell id="0"/>
                <mxCell id="1" parent="0"/>
                <mxCell id="6" value="" style="rounded=0;whiteSpace=wrap;html=1;" parent="1" vertex="1">
                    <mxGeometry x="120" y="80" width="720" height="480" as="geometry"/>
                </mxCell>
                <mxCell id="4" value="" style="rounded=0;whiteSpace=wrap;html=1;" parent="1" vertex="1">
                    <mxGeometry x="140" y="100" width="680" height="440" as="geometry"/>
                </mxCell>
                <mxCell id="2" value="" style="rounded=0;whiteSpace=wrap;html=1;" parent="1" vertex="1">
                    <mxGeometry x="200" y="160" width="240" height="320" as="geometry"/>
                </mxCell>
                <mxCell id="3" value="" style="rounded=0;whiteSpace=wrap;html=1;" parent="1" vertex="1">
                    <mxGeometry x="520" y="160" width="240" height="320" as="geometry"/>
                </mxCell>
                <mxCell id="5" value="LinuxLab01-xxxx" style="rounded=0;whiteSpace=wrap;html=1;" parent="1" vertex="1">
                    <mxGeometry x="590" y="200" width="100" height="30" as="geometry"/>
                </mxCell>
                <mxCell id="7" value="LinuxLab01-xxxx" style="rounded=0;whiteSpace=wrap;html=1;" parent="1" vertex="1">
                    <mxGeometry x="590" y="240" width="100" height="30" as="geometry"/>
                </mxCell>
                <mxCell id="9" value="Guacamole" style="rounded=0;whiteSpace=wrap;html=1;" parent="1" vertex="1">
                    <mxGeometry x="270" y="190" width="100" height="90" as="geometry"/>
                </mxCell>
                <mxCell id="14" style="edgeStyle=none;html=1;exitX=0;exitY=0.5;exitDx=0;exitDy=0;shape=link;" parent="1" edge="1">
                    <mxGeometry relative="1" as="geometry">
                        <mxPoint x="100" y="345" as="targetPoint"/>
                        <mxPoint x="270" y="344.9" as="sourcePoint"/>
                    </mxGeometry>
                </mxCell>
                <mxCell id="10" value="Publique" style="whiteSpace=wrap;html=1;" parent="1" vertex="1">
                    <mxGeometry x="210" y="225" width="70" height="20" as="geometry"/>
                </mxCell>
                <mxCell id="12" style="edgeStyle=orthogonalEdgeStyle;html=1;exitX=1.007;exitY=0.388;exitDx=0;exitDy=0;entryX=0;entryY=0.5;entryDx=0;entryDy=0;fillColor=#ffe6cc;strokeColor=#d79b00;exitPerimeter=0;" parent="1" source="11" target="5" edge="1">
                    <mxGeometry relative="1" as="geometry"/>
                </mxCell>
                <mxCell id="13" style="edgeStyle=orthogonalEdgeStyle;html=1;exitX=1.003;exitY=0.645;exitDx=0;exitDy=0;entryX=0;entryY=0.5;entryDx=0;entryDy=0;fillColor=#ffe6cc;strokeColor=#d79b00;exitPerimeter=0;" parent="1" source="11" target="7" edge="1">
                    <mxGeometry relative="1" as="geometry"/>
                </mxCell>
                <mxCell id="11" value="PrivÃ©" style="whiteSpace=wrap;html=1;" parent="1" vertex="1">
                    <mxGeometry x="360" y="225" width="70" height="20" as="geometry"/>
                </mxCell>
                <mxCell id="16" style="edgeStyle=none;html=1;exitX=0.5;exitY=0;exitDx=0;exitDy=0;entryX=0.5;entryY=1;entryDx=0;entryDy=0;fillColor=#ffe6cc;strokeColor=#d79b00;" parent="1" source="15" target="9" edge="1">
                    <mxGeometry relative="1" as="geometry"/>
                </mxCell>
                <mxCell id="15" value="Nginx" style="rounded=0;whiteSpace=wrap;html=1;" parent="1" vertex="1">
                    <mxGeometry x="270" y="320" width="100" height="50" as="geometry"/>
                </mxCell>
                <mxCell id="53" value="" style="group" parent="1" vertex="1" connectable="0">
                    <mxGeometry x="1230" y="80" width="330" height="200" as="geometry"/>
                </mxCell>
                <mxCell id="17" value="" style="rounded=0;whiteSpace=wrap;html=1;" parent="53" vertex="1">
                    <mxGeometry width="330" height="150" as="geometry"/>
                </mxCell>
                <mxCell id="20" value="" style="group" parent="53" vertex="1" connectable="0">
                    <mxGeometry x="9" y="7" width="111" height="193" as="geometry"/>
                </mxCell>
                <mxCell id="18" value="" style="rounded=0;whiteSpace=wrap;html=1;" parent="20" vertex="1">
                    <mxGeometry x="11" y="23" width="100" height="107" as="geometry"/>
                </mxCell>
                <mxCell id="19" value="users" style="text;html=1;align=center;verticalAlign=middle;resizable=0;points=[];autosize=1;strokeColor=none;fillColor=none;" parent="20" vertex="1">
                    <mxGeometry width="50" height="30" as="geometry"/>
                </mxCell>
                <mxCell id="21" value="" style="group" parent="53" vertex="1" connectable="0">
                    <mxGeometry x="200" y="7" width="111" height="193" as="geometry"/>
                </mxCell>
                <mxCell id="22" value="" style="rounded=0;whiteSpace=wrap;html=1;" parent="21" vertex="1">
                    <mxGeometry x="11" y="23" width="100" height="107" as="geometry"/>
                </mxCell>
                <mxCell id="23" value="sessions" style="text;html=1;align=center;verticalAlign=middle;resizable=0;points=[];autosize=1;strokeColor=none;fillColor=none;" parent="21" vertex="1">
                    <mxGeometry x="-2" width="70" height="30" as="geometry"/>
                </mxCell>
                <mxCell id="34" value="" style="group" parent="53" vertex="1" connectable="0">
                    <mxGeometry x="46" y="43" width="240" height="20" as="geometry"/>
                </mxCell>
                <mxCell id="31" value="demo01" style="whiteSpace=wrap;html=1;" parent="34" vertex="1">
                    <mxGeometry width="50" height="20" as="geometry"/>
                </mxCell>
                <mxCell id="32" style="edgeStyle=none;html=1;exitX=1;exitY=0.5;exitDx=0;exitDy=0;entryX=0;entryY=0.5;entryDx=0;entryDy=0;" parent="34" source="31" edge="1">
                    <mxGeometry relative="1" as="geometry">
                        <mxPoint x="191" y="10" as="targetPoint"/>
                    </mxGeometry>
                </mxCell>
                <mxCell id="33" value="lab01" style="whiteSpace=wrap;html=1;" parent="34" vertex="1">
                    <mxGeometry x="190" width="50" height="20" as="geometry"/>
                </mxCell>
                <mxCell id="44" value="" style="group" parent="53" vertex="1" connectable="0">
                    <mxGeometry x="46" y="68" width="240" height="20" as="geometry"/>
                </mxCell>
                <mxCell id="45" value="demo02" style="whiteSpace=wrap;html=1;" parent="44" vertex="1">
                    <mxGeometry width="50" height="20" as="geometry"/>
                </mxCell>
                <mxCell id="46" style="edgeStyle=none;html=1;exitX=1;exitY=0.5;exitDx=0;exitDy=0;entryX=0;entryY=0.5;entryDx=0;entryDy=0;" parent="44" source="45" edge="1">
                    <mxGeometry relative="1" as="geometry">
                        <mxPoint x="191" y="10" as="targetPoint"/>
                    </mxGeometry>
                </mxCell>
                <mxCell id="47" value="lab02" style="whiteSpace=wrap;html=1;" parent="44" vertex="1">
                    <mxGeometry x="190" width="50" height="20" as="geometry"/>
                </mxCell>
                <mxCell id="48" value="" style="group" parent="53" vertex="1" connectable="0">
                    <mxGeometry x="46" y="94" width="240" height="20" as="geometry"/>
                </mxCell>
                <mxCell id="49" value="demo03" style="whiteSpace=wrap;html=1;" parent="48" vertex="1">
                    <mxGeometry width="50" height="20" as="geometry"/>
                </mxCell>
                <mxCell id="50" style="edgeStyle=none;html=1;exitX=1;exitY=0.5;exitDx=0;exitDy=0;entryX=0;entryY=0.5;entryDx=0;entryDy=0;" parent="48" source="49" edge="1">
                    <mxGeometry relative="1" as="geometry">
                        <mxPoint x="191" y="10" as="targetPoint"/>
                    </mxGeometry>
                </mxCell>
                <mxCell id="51" value="lab03" style="whiteSpace=wrap;html=1;" parent="48" vertex="1">
                    <mxGeometry x="190" width="50" height="20" as="geometry"/>
                </mxCell>
            </root>
        </mxGraphModel>
    </diagram>
    <diagram id="EP1Tm-bv4HpGFcNMxGMF" name="Page-2">
        <mxGraphModel dx="1009" dy="765" grid="1" gridSize="10" guides="1" tooltips="1" connect="1" arrows="1" fold="1" page="1" pageScale="1" pageWidth="1169" pageHeight="827" math="0" shadow="0">
            <root>
                <mxCell id="0"/>
                <mxCell id="1" parent="0"/>
                <mxCell id="uGOgZB36AWkVCw9IUhEi-6" style="edgeStyle=none;html=1;exitX=1;exitY=0.5;exitDx=0;exitDy=0;entryX=0;entryY=0.5;entryDx=0;entryDy=0;" parent="1" source="uGOgZB36AWkVCw9IUhEi-2" target="uGOgZB36AWkVCw9IUhEi-3" edge="1">
                    <mxGeometry relative="1" as="geometry"/>
                </mxCell>
                <mxCell id="uGOgZB36AWkVCw9IUhEi-7" style="edgeStyle=none;html=1;exitX=1;exitY=0.5;exitDx=0;exitDy=0;entryX=0;entryY=0.5;entryDx=0;entryDy=0;" parent="1" source="uGOgZB36AWkVCw9IUhEi-2" target="uGOgZB36AWkVCw9IUhEi-5" edge="1">
                    <mxGeometry relative="1" as="geometry"/>
                </mxCell>
                <mxCell id="uGOgZB36AWkVCw9IUhEi-2" value="Guacamole" style="rounded=0;whiteSpace=wrap;html=1;" parent="1" vertex="1">
                    <mxGeometry x="320" y="240" width="120" height="80" as="geometry"/>
                </mxCell>
                <mxCell id="uGOgZB36AWkVCw9IUhEi-3" value="VM1" style="rounded=0;whiteSpace=wrap;html=1;" parent="1" vertex="1">
                    <mxGeometry x="560" y="220" width="120" height="40" as="geometry"/>
                </mxCell>
                <mxCell id="uGOgZB36AWkVCw9IUhEi-5" value="VM2" style="rounded=0;whiteSpace=wrap;html=1;" parent="1" vertex="1">
                    <mxGeometry x="560" y="300" width="120" height="40" as="geometry"/>
                </mxCell>
                <mxCell id="uGOgZB36AWkVCw9IUhEi-9" style="edgeStyle=none;html=1;exitX=1;exitY=0.5;exitDx=0;exitDy=0;entryX=0;entryY=0.5;entryDx=0;entryDy=0;" parent="1" source="uGOgZB36AWkVCw9IUhEi-8" target="uGOgZB36AWkVCw9IUhEi-2" edge="1">
                    <mxGeometry relative="1" as="geometry"/>
                </mxCell>
                <mxCell id="uGOgZB36AWkVCw9IUhEi-8" value="Webserver" style="rounded=0;whiteSpace=wrap;html=1;" parent="1" vertex="1">
                    <mxGeometry x="120" y="240" width="120" height="80" as="geometry"/>
                </mxCell>
            </root>
        </mxGraphModel>
    </diagram>
    <diagram id="HwTPSSIFLyG4hRbNAvUK" name="V3-DBInj">
        <mxGraphModel dx="1187" dy="900" grid="1" gridSize="10" guides="1" tooltips="1" connect="1" arrows="1" fold="1" page="1" pageScale="1" pageWidth="1169" pageHeight="827" math="0" shadow="0">
            <root>
                <mxCell id="0"/>
                <mxCell id="1" parent="0"/>
                <mxCell id="JfNttKaltnoyDoJ2yjN3-7" value="" style="rounded=0;whiteSpace=wrap;html=1;" vertex="1" parent="1">
                    <mxGeometry x="200" y="160" width="240" height="280" as="geometry"/>
                </mxCell>
                <mxCell id="JfNttKaltnoyDoJ2yjN3-21" value="" style="group" vertex="1" connectable="0" parent="1">
                    <mxGeometry x="209" y="160" width="201" height="254" as="geometry"/>
                </mxCell>
                <mxCell id="JfNttKaltnoyDoJ2yjN3-19" value="" style="whiteSpace=wrap;html=1;" vertex="1" parent="JfNttKaltnoyDoJ2yjN3-21">
                    <mxGeometry x="11" y="24" width="190" height="230" as="geometry"/>
                </mxCell>
                <mxCell id="JfNttKaltnoyDoJ2yjN3-20" value="guac-pod" style="text;html=1;align=center;verticalAlign=middle;resizable=0;points=[];autosize=1;strokeColor=none;fillColor=none;" vertex="1" parent="JfNttKaltnoyDoJ2yjN3-21">
                    <mxGeometry width="70" height="30" as="geometry"/>
                </mxCell>
                <mxCell id="JfNttKaltnoyDoJ2yjN3-1" value="Mariadb" style="rounded=0;whiteSpace=wrap;html=1;" vertex="1" parent="1">
                    <mxGeometry x="235" y="200" width="160" height="40" as="geometry"/>
                </mxCell>
                <mxCell id="JfNttKaltnoyDoJ2yjN3-2" value="Guacamole" style="rounded=0;whiteSpace=wrap;html=1;" vertex="1" parent="1">
                    <mxGeometry x="235" y="280" width="160" height="40" as="geometry"/>
                </mxCell>
                <mxCell id="JfNttKaltnoyDoJ2yjN3-3" value="GuacaD" style="rounded=0;whiteSpace=wrap;html=1;" vertex="1" parent="1">
                    <mxGeometry x="235" y="360" width="160" height="40" as="geometry"/>
                </mxCell>
                <mxCell id="JfNttKaltnoyDoJ2yjN3-8" value="Podman 10.8" style="text;html=1;align=center;verticalAlign=middle;resizable=0;points=[];autosize=1;strokeColor=none;fillColor=none;" vertex="1" parent="1">
                    <mxGeometry x="192" y="134" width="90" height="30" as="geometry"/>
                </mxCell>
                <mxCell id="JfNttKaltnoyDoJ2yjN3-9" value="" style="rounded=0;whiteSpace=wrap;html=1;" vertex="1" parent="1">
                    <mxGeometry x="520" y="160" width="240" height="280" as="geometry"/>
                </mxCell>
                <mxCell id="JfNttKaltnoyDoJ2yjN3-17" style="edgeStyle=none;html=1;exitX=0;exitY=0.5;exitDx=0;exitDy=0;entryX=1;entryY=0.5;entryDx=0;entryDy=0;startArrow=classic;startFill=1;" edge="1" parent="1" source="JfNttKaltnoyDoJ2yjN3-10" target="JfNttKaltnoyDoJ2yjN3-16">
                    <mxGeometry relative="1" as="geometry"/>
                </mxCell>
                <mxCell id="JfNttKaltnoyDoJ2yjN3-10" value="Apache2" style="rounded=0;whiteSpace=wrap;html=1;" vertex="1" parent="1">
                    <mxGeometry x="560" y="280" width="160" height="40" as="geometry"/>
                </mxCell>
                <mxCell id="JfNttKaltnoyDoJ2yjN3-18" style="edgeStyle=none;html=1;entryX=1;entryY=0.5;entryDx=0;entryDy=0;" edge="1" parent="1" source="JfNttKaltnoyDoJ2yjN3-11" target="JfNttKaltnoyDoJ2yjN3-15">
                    <mxGeometry relative="1" as="geometry"/>
                </mxCell>
                <mxCell id="JfNttKaltnoyDoJ2yjN3-11" value="Backend (Node.js ?)" style="rounded=0;whiteSpace=wrap;html=1;" vertex="1" parent="1">
                    <mxGeometry x="560" y="200" width="160" height="40" as="geometry"/>
                </mxCell>
                <mxCell id="JfNttKaltnoyDoJ2yjN3-12" value="GuacaD" style="rounded=0;whiteSpace=wrap;html=1;" vertex="1" parent="1">
                    <mxGeometry x="560" y="360" width="160" height="40" as="geometry"/>
                </mxCell>
                <mxCell id="JfNttKaltnoyDoJ2yjN3-13" value="LinuxLab 10.9" style="text;html=1;align=center;verticalAlign=middle;resizable=0;points=[];autosize=1;strokeColor=none;fillColor=none;" vertex="1" parent="1">
                    <mxGeometry x="509" y="134" width="100" height="30" as="geometry"/>
                </mxCell>
                <mxCell id="JfNttKaltnoyDoJ2yjN3-15" value="3306" style="whiteSpace=wrap;html=1;" vertex="1" parent="1">
                    <mxGeometry x="400" y="210" width="30" height="20" as="geometry"/>
                </mxCell>
                <mxCell id="JfNttKaltnoyDoJ2yjN3-16" value="8080" style="whiteSpace=wrap;html=1;" vertex="1" parent="1">
                    <mxGeometry x="400" y="290" width="30" height="20" as="geometry"/>
                </mxCell>
            </root>
        </mxGraphModel>
    </diagram>
    <diagram name="V3-APIREST" id="Qx8kvIVe1GzXySpqSc1K">
        <mxGraphModel dx="841" dy="638" grid="1" gridSize="10" guides="1" tooltips="1" connect="1" arrows="1" fold="1" page="1" pageScale="1" pageWidth="1169" pageHeight="827" math="0" shadow="0">
            <root>
                <mxCell id="ixHICUMYL33LskqGYvsv-0"/>
                <mxCell id="ixHICUMYL33LskqGYvsv-1" parent="ixHICUMYL33LskqGYvsv-0"/>
                <mxCell id="ixHICUMYL33LskqGYvsv-2" value="" style="rounded=0;whiteSpace=wrap;html=1;" vertex="1" parent="ixHICUMYL33LskqGYvsv-1">
                    <mxGeometry x="38" y="36" width="240" height="280" as="geometry"/>
                </mxCell>
                <mxCell id="ixHICUMYL33LskqGYvsv-3" value="" style="group" vertex="1" connectable="0" parent="ixHICUMYL33LskqGYvsv-1">
                    <mxGeometry x="47" y="36" width="201" height="254" as="geometry"/>
                </mxCell>
                <mxCell id="ixHICUMYL33LskqGYvsv-4" value="" style="whiteSpace=wrap;html=1;" vertex="1" parent="ixHICUMYL33LskqGYvsv-3">
                    <mxGeometry x="11" y="24" width="190" height="230" as="geometry"/>
                </mxCell>
                <mxCell id="ixHICUMYL33LskqGYvsv-5" value="guac-pod" style="text;html=1;align=center;verticalAlign=middle;resizable=0;points=[];autosize=1;strokeColor=none;fillColor=none;" vertex="1" parent="ixHICUMYL33LskqGYvsv-3">
                    <mxGeometry width="70" height="30" as="geometry"/>
                </mxCell>
                <mxCell id="ixHICUMYL33LskqGYvsv-6" value="Mariadb" style="rounded=0;whiteSpace=wrap;html=1;" vertex="1" parent="ixHICUMYL33LskqGYvsv-1">
                    <mxGeometry x="73" y="76" width="160" height="40" as="geometry"/>
                </mxCell>
                <mxCell id="ixHICUMYL33LskqGYvsv-7" value="Guacamole" style="rounded=0;whiteSpace=wrap;html=1;" vertex="1" parent="ixHICUMYL33LskqGYvsv-1">
                    <mxGeometry x="73" y="156" width="160" height="40" as="geometry"/>
                </mxCell>
                <mxCell id="ixHICUMYL33LskqGYvsv-8" value="GuacaD" style="rounded=0;whiteSpace=wrap;html=1;" vertex="1" parent="ixHICUMYL33LskqGYvsv-1">
                    <mxGeometry x="73" y="236" width="160" height="40" as="geometry"/>
                </mxCell>
                <mxCell id="ixHICUMYL33LskqGYvsv-9" value="Podman 10.8" style="text;html=1;align=center;verticalAlign=middle;resizable=0;points=[];autosize=1;strokeColor=none;fillColor=none;" vertex="1" parent="ixHICUMYL33LskqGYvsv-1">
                    <mxGeometry x="30" y="10" width="90" height="30" as="geometry"/>
                </mxCell>
                <mxCell id="ixHICUMYL33LskqGYvsv-10" value="" style="rounded=0;whiteSpace=wrap;html=1;" vertex="1" parent="ixHICUMYL33LskqGYvsv-1">
                    <mxGeometry x="358" y="36" width="240" height="280" as="geometry"/>
                </mxCell>
                <mxCell id="ixHICUMYL33LskqGYvsv-12" value="Apache2" style="rounded=0;whiteSpace=wrap;html=1;" vertex="1" parent="ixHICUMYL33LskqGYvsv-1">
                    <mxGeometry x="398" y="156" width="160" height="40" as="geometry"/>
                </mxCell>
                <mxCell id="SJj8lusU3uztIkJkdF5a-0" style="edgeStyle=none;html=1;exitX=0;exitY=0.5;exitDx=0;exitDy=0;entryX=1;entryY=0.5;entryDx=0;entryDy=0;" edge="1" parent="ixHICUMYL33LskqGYvsv-1" source="ixHICUMYL33LskqGYvsv-14" target="ixHICUMYL33LskqGYvsv-18">
                    <mxGeometry relative="1" as="geometry"/>
                </mxCell>
                <mxCell id="ixHICUMYL33LskqGYvsv-14" value="Backend (Node.js ?)" style="rounded=0;whiteSpace=wrap;html=1;" vertex="1" parent="ixHICUMYL33LskqGYvsv-1">
                    <mxGeometry x="398" y="76" width="160" height="40" as="geometry"/>
                </mxCell>
                <mxCell id="ixHICUMYL33LskqGYvsv-15" value="GuacaD" style="rounded=0;whiteSpace=wrap;html=1;" vertex="1" parent="ixHICUMYL33LskqGYvsv-1">
                    <mxGeometry x="398" y="236" width="160" height="40" as="geometry"/>
                </mxCell>
                <mxCell id="ixHICUMYL33LskqGYvsv-16" value="LinuxLab 10.9" style="text;html=1;align=center;verticalAlign=middle;resizable=0;points=[];autosize=1;strokeColor=none;fillColor=none;" vertex="1" parent="ixHICUMYL33LskqGYvsv-1">
                    <mxGeometry x="347" y="10" width="100" height="30" as="geometry"/>
                </mxCell>
                <mxCell id="ixHICUMYL33LskqGYvsv-17" value="3306" style="whiteSpace=wrap;html=1;" vertex="1" parent="ixHICUMYL33LskqGYvsv-1">
                    <mxGeometry x="238" y="86" width="30" height="20" as="geometry"/>
                </mxCell>
                <mxCell id="ixHICUMYL33LskqGYvsv-18" value="8080" style="whiteSpace=wrap;html=1;" vertex="1" parent="ixHICUMYL33LskqGYvsv-1">
                    <mxGeometry x="238" y="166" width="30" height="20" as="geometry"/>
                </mxCell>
                <mxCell id="SJj8lusU3uztIkJkdF5a-4" style="edgeStyle=none;html=1;" edge="1" parent="ixHICUMYL33LskqGYvsv-1" source="SJj8lusU3uztIkJkdF5a-3" target="SJj8lusU3uztIkJkdF5a-2">
                    <mxGeometry relative="1" as="geometry"/>
                </mxCell>
                <mxCell id="SJj8lusU3uztIkJkdF5a-3" value="" style="html=1;verticalLabelPosition=bottom;align=center;labelBackgroundColor=#ffffff;verticalAlign=top;strokeWidth=2;strokeColor=#0080F0;shadow=0;dashed=0;shape=mxgraph.ios7.icons.user;" vertex="1" parent="ixHICUMYL33LskqGYvsv-1">
                    <mxGeometry x="47" y="965" width="70" height="70" as="geometry"/>
                </mxCell>
                <mxCell id="SJj8lusU3uztIkJkdF5a-7" value="" style="group" vertex="1" connectable="0" parent="ixHICUMYL33LskqGYvsv-1">
                    <mxGeometry x="670" y="895" width="209" height="186" as="geometry"/>
                </mxCell>
                <mxCell id="SJj8lusU3uztIkJkdF5a-5" value="" style="whiteSpace=wrap;html=1;" vertex="1" parent="SJj8lusU3uztIkJkdF5a-7">
                    <mxGeometry x="9" y="26" width="200" height="160" as="geometry"/>
                </mxCell>
                <mxCell id="SJj8lusU3uztIkJkdF5a-6" value="Azure" style="text;html=1;align=center;verticalAlign=middle;resizable=0;points=[];autosize=1;strokeColor=none;fillColor=none;fontStyle=1" vertex="1" parent="SJj8lusU3uztIkJkdF5a-7">
                    <mxGeometry width="50" height="30" as="geometry"/>
                </mxCell>
                <mxCell id="SJj8lusU3uztIkJkdF5a-9" value="" style="group" vertex="1" connectable="0" parent="ixHICUMYL33LskqGYvsv-1">
                    <mxGeometry x="149" y="895" width="171" height="185" as="geometry"/>
                </mxCell>
                <mxCell id="SJj8lusU3uztIkJkdF5a-13" style="edgeStyle=none;html=1;exitX=1;exitY=0.5;exitDx=0;exitDy=0;" edge="1" parent="SJj8lusU3uztIkJkdF5a-9" source="SJj8lusU3uztIkJkdF5a-2">
                    <mxGeometry relative="1" as="geometry">
                        <mxPoint x="248.09826589595374" y="104.57142857142844" as="targetPoint"/>
                    </mxGeometry>
                </mxCell>
                <mxCell id="SJj8lusU3uztIkJkdF5a-2" value="" style="whiteSpace=wrap;html=1;" vertex="1" parent="SJj8lusU3uztIkJkdF5a-9">
                    <mxGeometry x="10.872832369942197" y="25" width="160.1271676300578" height="160" as="geometry"/>
                </mxCell>
                <mxCell id="SJj8lusU3uztIkJkdF5a-8" value="Webserver" style="text;html=1;align=center;verticalAlign=middle;resizable=0;points=[];autosize=1;strokeColor=none;fillColor=none;" vertex="1" parent="SJj8lusU3uztIkJkdF5a-9">
                    <mxGeometry width="80" height="30" as="geometry"/>
                </mxCell>
                <mxCell id="SJj8lusU3uztIkJkdF5a-15" value="Start Lab" style="whiteSpace=wrap;html=1;" vertex="1" parent="SJj8lusU3uztIkJkdF5a-9">
                    <mxGeometry x="20.757225433526013" y="35" width="78.08670520231215" height="20" as="geometry"/>
                </mxCell>
                <mxCell id="SJj8lusU3uztIkJkdF5a-17" value="Stop Lab" style="whiteSpace=wrap;html=1;" vertex="1" parent="SJj8lusU3uztIkJkdF5a-9">
                    <mxGeometry x="46.456647398843934" y="65" width="78.08670520231215" height="20" as="geometry"/>
                </mxCell>
                <mxCell id="SJj8lusU3uztIkJkdF5a-30" value="Info_Session" style="whiteSpace=wrap;html=1;" vertex="1" parent="SJj8lusU3uztIkJkdF5a-9">
                    <mxGeometry x="20.757225433526013" y="95" width="78.08670520231215" height="20" as="geometry"/>
                </mxCell>
                <mxCell id="SJj8lusU3uztIkJkdF5a-10" value="" style="group" vertex="1" connectable="0" parent="ixHICUMYL33LskqGYvsv-1">
                    <mxGeometry x="389" y="894" width="173" height="266" as="geometry"/>
                </mxCell>
                <mxCell id="SJj8lusU3uztIkJkdF5a-11" value="" style="whiteSpace=wrap;html=1;" vertex="1" parent="SJj8lusU3uztIkJkdF5a-10">
                    <mxGeometry x="11" y="24.031437500000003" width="162" height="241.9685625" as="geometry"/>
                </mxCell>
                <mxCell id="SJj8lusU3uztIkJkdF5a-12" value="Backend" style="text;html=1;align=center;verticalAlign=middle;resizable=0;points=[];autosize=1;strokeColor=none;fillColor=none;" vertex="1" parent="SJj8lusU3uztIkJkdF5a-10">
                    <mxGeometry x="1" width="70" height="30" as="geometry"/>
                </mxCell>
                <mxCell id="SJj8lusU3uztIkJkdF5a-26" value="var_random" style="whiteSpace=wrap;html=1;" vertex="1" parent="SJj8lusU3uztIkJkdF5a-10">
                    <mxGeometry x="21" y="34.60891304347826" width="99" height="19.22717391304348" as="geometry"/>
                </mxCell>
                <mxCell id="SJj8lusU3uztIkJkdF5a-27" value="create_AZ_lab" style="whiteSpace=wrap;html=1;" vertex="1" parent="SJj8lusU3uztIkJkdF5a-10">
                    <mxGeometry x="21" y="63.449673913043476" width="99" height="19.22717391304348" as="geometry"/>
                </mxCell>
                <mxCell id="SJj8lusU3uztIkJkdF5a-28" value="get_lab_info" style="whiteSpace=wrap;html=1;" vertex="1" parent="SJj8lusU3uztIkJkdF5a-10">
                    <mxGeometry x="21" y="91.32907608695653" width="99" height="19.22717391304348" as="geometry"/>
                </mxCell>
                <mxCell id="SJj8lusU3uztIkJkdF5a-29" value="create_guaca" style="whiteSpace=wrap;html=1;" vertex="1" parent="SJj8lusU3uztIkJkdF5a-10">
                    <mxGeometry x="21" y="120.16983695652173" width="99" height="19.22717391304348" as="geometry"/>
                </mxCell>
                <mxCell id="SJj8lusU3uztIkJkdF5a-32" value="send_infos" style="whiteSpace=wrap;html=1;" vertex="1" parent="SJj8lusU3uztIkJkdF5a-10">
                    <mxGeometry x="21" y="148.0492391304348" width="99" height="19.22717391304348" as="geometry"/>
                </mxCell>
                <mxCell id="SJj8lusU3uztIkJkdF5a-33" value="Supervision" style="whiteSpace=wrap;html=1;" vertex="1" parent="SJj8lusU3uztIkJkdF5a-10">
                    <mxGeometry x="21" y="178.81271739130435" width="99" height="19.22717391304348" as="geometry"/>
                </mxCell>
                <mxCell id="SJj8lusU3uztIkJkdF5a-34" value="Kill_Session" style="whiteSpace=wrap;html=1;" vertex="1" parent="SJj8lusU3uztIkJkdF5a-10">
                    <mxGeometry x="21" y="204.49002989130443" width="99" height="19.22717391304348" as="geometry"/>
                </mxCell>
                <mxCell id="SJj8lusU3uztIkJkdF5a-35" value="Clean" style="whiteSpace=wrap;html=1;" vertex="1" parent="SJj8lusU3uztIkJkdF5a-10">
                    <mxGeometry x="21" y="229.4275298913044" width="99" height="19.22717391304348" as="geometry"/>
                </mxCell>
                <mxCell id="SJj8lusU3uztIkJkdF5a-19" value="&lt;p&gt;&lt;/p&gt;&lt;ul&gt;&lt;li&gt;L&#39;utilisateur pointe vers la page web.&lt;/li&gt;&lt;ul&gt;&lt;li&gt;Il a trois boutons :&amp;nbsp;&lt;/li&gt;&lt;ul&gt;&lt;li&gt;StartLab :&amp;nbsp;&lt;/li&gt;&lt;li&gt;StopLab :&amp;nbsp;&lt;/li&gt;&lt;li&gt;Ouvrir environnement :&lt;/li&gt;&lt;/ul&gt;&lt;li&gt;Il a les instructions autour du lab.&lt;/li&gt;&lt;/ul&gt;&lt;li&gt;Lorsqu&#39;il clique sur StartLab Le backend rentre en jeu:&lt;/li&gt;&lt;ul&gt;&lt;li&gt;Il gÃ©nÃ¨re des variables avec des noms randoms&lt;/li&gt;&lt;ul&gt;&lt;li&gt;mot de passe, nom_vm...&lt;i&gt; selon le lab&lt;/i&gt;&lt;/li&gt;&lt;/ul&gt;&lt;li&gt;&lt;span style=&quot;color: rgb(63, 63, 63); background-color: transparent;&quot;&gt;Il crÃ©e des ressoruces sur Azure &lt;i&gt;selon le lab&lt;/i&gt;&lt;/span&gt;&lt;/li&gt;&lt;li&gt;&lt;span style=&quot;color: rgb(63, 63, 63); background-color: transparent;&quot;&gt;Il dÃ©finit un timer et veille Ã  respecter le temps en supprimant quand le timer est fini&lt;/span&gt;&lt;/li&gt;&lt;li&gt;&lt;span style=&quot;color: rgb(63, 63, 63); background-color: transparent;&quot;&gt;Il rÃ©cupÃ¨re les informations (ip, nom) et les stock dans un fichier yaml&lt;/span&gt;&lt;/li&gt;&lt;li&gt;&lt;span style=&quot;color: rgb(63, 63, 63); background-color: transparent;&quot;&gt;Il utilise ce fichier yaml pour crÃ©er une/des connexions et utilisateur sur Guacamole.&lt;/span&gt;&lt;/li&gt;&lt;li&gt;En cliquant sur Ouvrir environnement, l&#39;utilisateur soit :&lt;/li&gt;&lt;ul&gt;&lt;li&gt;tombe sur une page web avec diffÃ©rents boutons qui renvoient vers des machines (cplane, webserver, admin01...)&lt;/li&gt;&lt;li&gt;une machine cplane et depuis il se connecter sur les autres.&lt;/li&gt;&lt;/ul&gt;&lt;/ul&gt;&lt;/ul&gt;&lt;p&gt;&lt;/p&gt;" style="whiteSpace=wrap;html=1;align=left;verticalAlign=top;" vertex="1" parent="ixHICUMYL33LskqGYvsv-1">
                    <mxGeometry x="38" y="1200" width="682" height="440" as="geometry"/>
                </mxCell>
            </root>
        </mxGraphModel>
    </diagram>
</mxfile>